<svg xmlns="http://www.w3.org/2000/svg" xmlns:xlink="http://www.w3.org/1999/xlink" fill="none" version="1.1" width="101.45535278320312" height="24" viewBox="0 0 101.45535278320312 24"><defs><clipPath id="master_svg0_289_06711"><rect x="0" y="0" width="101.45535278320312" height="24" rx="0"/></clipPath><linearGradient x1="-3.552713678800501e-14" y1="0.5000748634338379" x2="1" y2="0.5000748634338379" id="master_svg1_15_20027"><stop offset="0%" stop-color="#3E5CF4" stop-opacity="1"/><stop offset="5.000000074505806%" stop-color="#425BF5" stop-opacity="1"/><stop offset="36.000001430511475%" stop-color="#595BFA" stop-opacity="1"/><stop offset="64.99999761581421%" stop-color="#685BFD" stop-opacity="1"/><stop offset="89.99999761581421%" stop-color="#6D5BFF" stop-opacity="1"/></linearGradient><linearGradient x1="0.00008591065125074238" y1="0.4999382793903351" x2="1.0000859498977661" y2="0.4999382793903351" id="master_svg2_15_20057"><stop offset="0%" stop-color="#3E5CF4" stop-opacity="1"/><stop offset="5.000000074505806%" stop-color="#425BF5" stop-opacity="1"/><stop offset="36.000001430511475%" stop-color="#595BFA" stop-opacity="1"/><stop offset="64.99999761581421%" stop-color="#685BFD" stop-opacity="1"/><stop offset="89.99999761581421%" stop-color="#6D5BFF" stop-opacity="1"/></linearGradient><linearGradient x1="0.00008591065125074238" y1="0.4999520182609558" x2="1.0000859498977661" y2="0.4999520182609558" id="master_svg3_15_20029"><stop offset="0%" stop-color="#3E5CF4" stop-opacity="1"/><stop offset="5.000000074505806%" stop-color="#425BF5" stop-opacity="1"/><stop offset="36.000001430511475%" stop-color="#595BFA" stop-opacity="1"/><stop offset="64.99999761581421%" stop-color="#685BFD" stop-opacity="1"/><stop offset="89.99999761581421%" stop-color="#6D5BFF" stop-opacity="1"/></linearGradient><linearGradient x1="4.618527782440651e-14" y1="0.4998760223388672" x2="0.9997519850730896" y2="0.4998760223388672" id="master_svg4_15_20032"><stop offset="10.000000149011612%" stop-color="#3E5CF4" stop-opacity="1"/><stop offset="89.99999761581421%" stop-color="#6771F9" stop-opacity="1"/></linearGradient><linearGradient x1="3.552713678800501e-14" y1="0.5001146793365479" x2="1" y2="0.5001146793365479" id="master_svg5_15_20033"><stop offset="0%" stop-color="#3E5CF4" stop-opacity="1"/><stop offset="5.000000074505806%" stop-color="#425BF5" stop-opacity="1"/><stop offset="36.000001430511475%" stop-color="#595BFA" stop-opacity="1"/><stop offset="64.99999761581421%" stop-color="#685BFD" stop-opacity="1"/><stop offset="89.99999761581421%" stop-color="#6D5BFF" stop-opacity="1"/></linearGradient></defs><g clip-path="url(#master_svg0_289_06711)"><g><path d="M93.1064453125,10.02429296328125L93.1064453125,17.77503686328125L95.7908454125,17.77503686328125L95.7908454125,8.92196396328125Q95.7908454125,8.58672856328125,95.7908454125,6.55010986328125C95.7051444125,6.87442287328125,95.5631573125,7.2390646332812505,95.4900613125,7.38105678328125C94.9397334125,8.45229776328125,94.1104672125,9.36222266328125,93.1064453125,10.02429296328125Z" fill="url(#master_svg1_15_20027)" fill-opacity="1" style="mix-blend-mode:passthrough"/></g><g><g><path d="M82.71086298226625,11.441684689794922L82.71086298226625,11.708024489794923L85.39526817265624,11.708024489794923L85.39526817265624,11.441684689794922C85.39526817265624,11.31649638979492,85.40030907265626,11.192148689794923,85.41374997265625,11.071161289794922C85.42803167265625,10.899763089794922,85.45575927265625,10.728363989794921,85.49692777265625,10.567047589794921C85.74226137265624,9.511770689794922,86.41777157265625,8.622850389794921,87.32938527265625,8.095211789794922C87.89398957265625,7.775939689794922,88.54178237265626,7.591098289794922,89.23157457265626,7.586057389794922L89.25005627265625,7.586057389794922C90.82877447265625,7.5768153897949215,92.15710827265625,6.466085289794922,92.48982997265625,4.9848321527949215C92.22600937265625,4.929379682794922,91.95294757265626,4.901653289794922,91.67064567265625,4.901653289794922L89.25005627265625,4.901653289794922C88.02338217265626,4.901653289794922,86.87147567265625,5.244450269794922,85.88509987265626,5.836783829794922C85.70949797265625,5.938446689794922,85.53810117265625,6.054392489794922,85.37594537265625,6.174539589794922C84.46854217265626,6.8458504897949215,83.74177657265625,7.738971989794922,83.27967262265625,8.779966089794922C83.19145381265625,8.964807489794921,83.11751675265624,9.15973138979492,83.05282056265625,9.353815589794923C82.83100940265625,10.010843289794922,82.71002197265625,10.714921989794922,82.71002197265625,11.440844989794922L82.71086298226625,11.441684689794922Z" fill="url(#master_svg2_15_20057)" fill-opacity="1" style="mix-blend-mode:passthrough"/></g><g><path d="M82.71086298226625,11.232491971162109L82.71086298226625,10.96615219116211L85.39526817265624,10.96615219116211L85.39526817265624,11.232491971162109C85.39526817265624,11.357680621162109,85.40030907265626,11.482028241162109,85.41374997265625,11.60301566116211C85.42803167265625,11.774413701162109,85.45575927265625,11.94581300116211,85.49692777265625,12.10712909116211C85.74226137265624,13.162406491162109,86.41777157265625,14.05132649116211,87.32938527265625,14.578965191162109C87.89398957265625,14.89823749116211,88.54178237265626,15.08307889116211,89.23157457265626,15.088119491162109L89.25005627265625,15.088119491162109C90.82877447265625,15.097361591162109,92.15710827265625,16.291269791162108,92.48982997265625,17.77252339116211C92.21845057265625,17.775883691162107,91.95294757265626,17.77252339116211,91.67064567265625,17.77252339116211L89.25005627265625,17.77252339116211C88.02338217265626,17.77252339116211,86.87147567265625,17.42972609116211,85.88509987265626,16.83739279116211C85.70949797265625,16.735729191162108,85.53810117265625,16.619783891162108,85.37594537265625,16.49963619116211C84.46854217265626,15.82832479116211,83.74177657265625,14.935204491162109,83.27967262265625,13.894210291162109C83.19145381265625,13.709368991162108,83.11751675265624,13.514444591162109,83.05282056265625,13.320361091162109C82.83100940265625,12.66333259116211,82.71002197265625,11.959255041162109,82.71002197265625,11.233331711162108L82.71086298226625,11.232491971162109Z" fill="url(#master_svg3_15_20029)" fill-opacity="1" style="mix-blend-mode:passthrough"/></g></g><g><path d="M32.32045778125,17.583478833007813C32.32045778125,18.115317833007815,32.30365278125,18.584144833007812,32.26836578125,18.988275833007812C32.23391778125,19.39324583300781,32.18602678125,19.749486833007815,32.12385378125,20.05783483300781C31.939010781249998,20.905584833007815,31.57688878125,21.634029833007812,31.037489781250002,22.243166833007812C30.02002238125,23.41439083300781,28.62110518125,24.000842833007813,26.84074448125,24.000842833007813C25.337647481250002,24.000842833007813,24.10088638125,23.59587083300781,23.12962798125,22.78676783300781C22.12728308125,21.954140833007813,21.54923260125,20.802241833007812,21.39547783125,19.330228833007812L24.00846508125,19.330228833007812C24.10844778125,19.88559683300781,24.27396508125,20.313252833007812,24.50501708125,20.613200833007813C25.04441978125,21.314758833007815,25.83083538125,21.66511583300781,26.86426688125,21.66511583300781C28.76729488125,21.66511583300781,29.72006898125,20.49725383300781,29.72006898125,18.161526833007812L29.72006898125,16.589532833007812C28.68747568125,17.64565183300781,27.49608798125,18.173289833007814,26.147585881250002,18.173289833007814C24.61424068125,18.173289833007814,23.35731868125,17.617923833007815,22.37849878125,16.508875833007814C21.39211634125,15.383022333007812,20.89892578125,13.976545833007812,20.89892578125,12.288605733007813C20.89892578125,10.600667033007813,21.35682857125,9.252162933007813,22.27515458125,8.103624833007812C23.26153588125,6.886190893007813,24.56382898125,6.2770538330078125,26.18287468125,6.2770538330078125C27.60111428125,6.2770538330078125,28.77989958125,6.804692443007813,29.720911981249998,7.861650433007813L29.720911981249998,6.589604263007812L32.32213678125,6.589604263007812L32.32213678125,17.58431983300781L32.32045778125,17.583478833007813ZM29.82257748125,12.242396833007813C29.82257748125,11.148470433007812,29.529352181249997,10.272993533007813,28.94373988125,9.618486833007813C28.35056688125,8.948015733007812,27.59103488125,8.611940633007812,26.66598608125,8.611940633007812C25.67960498125,8.611940633007812,24.90074828125,8.978263133007813,24.330261481249998,9.710067533007813C23.813545681249998,10.365415533007813,23.55560688125,11.213166233007811,23.55560688125,12.254160833007813C23.55560688125,13.295154533007812,23.813545681249998,14.119380033007811,24.330261481249998,14.774727833007812C24.89318918125,15.491409333007812,25.67120268125,15.850170133007813,26.66598608125,15.850170133007813C27.66076948125,15.850170133007813,28.44634628125,15.488048533007813,29.02439788125,14.762965233007813C29.55623628125,14.107617833007811,29.82257748125,13.267428433007812,29.82257748125,12.242396833007813Z" fill="#333944" fill-opacity="1" style="mix-blend-mode:passthrough"/></g><g><path d="M34.9477564703034,6.588763893007813L37.54982180625,6.588763893007813L37.54982180625,7.594470233007812C38.02704860625,7.093717693007813,38.45134590625,6.750920413007813,38.82102820625,6.566079083007812C39.19827220625,6.3736757040078125,39.64609480625,6.2770538330078125,40.16196920625,6.2770538330078125C40.848404906249996,6.2770538330078125,41.56508640625,6.500544433007812,42.31285380625,6.947525023007812L41.12230490625,9.329461133007813C40.62911410625,8.974900933007813,40.14684680625,8.797621033007813,39.67717840625,8.797621033007813C38.25893930625,8.797621033007813,37.54981950625,9.869702533007812,37.54981950625,12.011343433007813L37.54981950625,17.849816833007814L34.94775390625,17.849816833007814L34.9477564703034,6.588763893007813Z" fill="#333944" fill-opacity="1" style="mix-blend-mode:passthrough"/></g><g><path d="M15.795654296875,2.3684996439453125C15.795654296875,1.9139576439453125,15.961171656875,1.5207490939453125,16.293046086875002,1.1888744239453124C16.624080836875,0.8578400039453125,17.021489896875,0.6914825439453125,17.483593896875,0.6914825439453125C17.945697996875,0.6914825439453125,18.354869796875,0.8569998039453125,18.685904496875,1.1888744239453124C19.017778896875,1.5131874039453126,19.183296196875,1.9097565439453126,19.183296196875,2.3802625439453124C19.183296196875,2.8507685439453123,19.017778896875,3.2515385439453124,18.685904496875,3.5825731439453126C18.362431096875,3.9144477439453125,17.965021896875,4.079965143945312,17.495356596875,4.079965143945312C17.025691196875,4.079965143945312,16.624080836875,3.9144477439453125,16.293046086875002,3.5825736439453126C15.961171656875,3.2515389439453126,15.795654296875,2.8465678439453126,15.795654296875,2.3684996439453125ZM18.877467396875,6.588768943945312L18.877467396875,17.84982254394531L16.100642086875,17.84982254394531L16.100642086875,6.588768943945312L18.877467396875,6.588768943945312Z" fill="#333944" fill-opacity="1" style="mix-blend-mode:passthrough"/></g><g><path d="M53.241054421875,12.831367033007812L45.171038821875,12.831367033007812C45.240776021875,13.756414433007812,45.540724321875,14.492421133007813,46.073401221875,15.040225033007813C46.605242221875,15.579626133007812,47.286633921875,15.849327133007813,48.119259321875,15.849327133007813C48.766205821875,15.849327133007813,49.302247021875,15.695571933007813,49.725700421875,15.386383033007812C50.024807021875,15.164573633007812,50.352482821875,14.803292233007813,50.592776321875,14.314302433007812L53.273817421875,14.314302433007812C53.102420421874996,15.134326933007813,52.593266421875,15.919064533007813,52.233662621875,16.35092183300781C51.875741921875004,16.780257833007813,51.486733421875,17.138178833007814,51.055715521875,17.404517833007812C50.623857521874996,17.67001783300781,50.157553721875,17.864941833007812,49.656799321875,17.988448833007812C49.155208621875,18.11111783300781,48.612444921875,18.173289833007814,48.026830721875,18.173289833007814C46.346452221875,18.173289833007814,44.997949821875,17.633888833007813,43.980482121875,16.555086833007813C42.963014361875,15.467882133007812,42.453857421875,14.026958433007813,42.453857421875,12.230633733007814C42.453857421875,10.434309033007812,42.947047981875,9.009348833007813,43.933431621875,7.907020833007812C44.928217921875,6.819815873007812,46.245633621875,6.2770538330078125,47.887361521875,6.2770538330078125C49.529088521874996,6.2770538330078125,50.854909921875,6.804692443007813,51.818604421875,7.861650433007813C52.773898421875,8.910206033007812,53.251966421875,10.362893533007814,53.251966421875,12.220551933007812L53.240202421875,12.833049333007812L53.241054421875,12.831367033007812ZM50.570095021875,10.704008133007813C50.207973521875,9.316016233007812,49.332497621875,8.622860233007813,47.945344421875,8.622860233007813C47.629432721875,8.622860233007813,47.332849021875,8.670751133007812,47.055582021875,8.767373133007812C46.778320821875,8.863994633007813,46.525423021875,9.002626133007812,46.297729921875,9.183266133007812C46.070036921875,9.364747533007812,45.875953421874996,9.582355933007813,45.713797821875,9.836933133007813C45.551641921875,10.090670133007812,45.428972521875,10.380535633007813,45.344112421874996,10.704008133007813L50.570095021875,10.704008133007813Z" fill="#333944" fill-opacity="1" style="mix-blend-mode:passthrough"/></g><g><path d="M60.0861025,18.152286157226563C57.0857856,18.152286157226563,55.32475272,16.49795315722656,54.8828125,14.299179057226562L57.669718,14.299179057226562C58.049485,15.144409157226562,58.9963746,15.723299057226562,60.193644,15.723299057226562C61.390913,15.723299057226562,62.102551,15.151130657226563,62.102551,14.467216457226563C62.102551,13.920253757226561,61.4648447,13.382532157226564,59.8920135,13.123753557226562C57.6453493,12.754911457226562,56.6303993,12.286925357226561,55.9960579,11.463541057226562C55.43313015,10.732576357226563,55.30458388,9.836934557226563,55.46169883,9.030353357226563C55.77592868,7.422231457226562,57.3328013,6.071207287226563,60.2138076,6.254368530226563C62.8015885,6.419045507226563,64.3408155,8.487591257226562,64.4853306,10.111676657226562L61.9328361,10.111676657226562C61.7127066,9.320218757226563,61.14642,8.756452057226563,60.0474515,8.590094357226562C59.105598,8.448102257226562,58.1259398,8.744688757226562,58.0738487,9.537827457226562C58.0242751,10.297358557226563,58.8090141,10.593945057226563,60.2642221,10.833398857226562C64.0685997,11.458499957226563,64.8222475,13.194330657226562,64.7844381,14.540312757226562C64.7239466,16.737407157226563,62.7478204,18.15144515722656,60.0852613,18.15144515722656L60.0861025,18.152286157226563Z" fill="#333944" fill-opacity="1" style="mix-blend-mode:passthrough"/></g><g><path d="M70.99772359375,18.152286157226563C67.99740669375,18.152286157226563,66.23637381375,16.49795315722656,65.79443359375,14.299179057226562L68.58133909375,14.299179057226562C68.96110609375,15.144409157226562,69.90799569375,15.723299057226562,71.10526509375,15.723299057226562C72.30253409375,15.723299057226562,73.01417209375,15.151130657226563,73.01417209375,14.467216457226563C73.01417209375,13.920253757226561,72.37646579375,13.382532157226564,70.80363459375,13.123753557226562C68.55697039375,12.754911457226562,67.54202039375,12.286925357226561,66.90767899375,11.463541057226562C66.34475124375,10.732576357226563,66.21620497375,9.836934557226563,66.37331992375,9.030353357226563C66.68754977375,7.422231457226562,68.24442239375,6.071207287226563,71.12542869375,6.254368530226563C73.71320959375,6.419045507226563,75.25243659375,8.487591257226562,75.39695169375,10.111676657226562L72.84445719375,10.111676657226562C72.62432769375,9.320218757226563,72.05804109375,8.756452057226563,70.95907259375,8.590094357226562C70.01721909375,8.448102257226562,69.03756089375,8.744688757226562,68.98546979375,9.537827457226562C68.93589619375,10.297358557226563,69.72063519375,10.593945057226563,71.17584319375,10.833398857226562C74.98022079375,11.458499957226563,75.73386859375,13.194330657226562,75.69605919375,14.540312757226562C75.63556769375,16.737407157226563,73.65944149375,18.15144515722656,70.99688239375,18.15144515722656L70.99772359375,18.152286157226563Z" fill="#333944" fill-opacity="1" style="mix-blend-mode:passthrough"/></g><g><g><path d="M9.7983560875,11.783651C9.5345363875,11.839105,9.2614745875,11.866831,8.9791717875,11.866831L6.5585860875,11.866831C5.3319110875,11.866831,4.1791710875,11.524034,3.1936297875,10.9317C3.0180301875,10.824996,2.8466312875,10.714091,2.6844751875,10.593945C1.7770707875,9.9226332,1.0503072875,9.0253115,0.5831623075,7.9885178C0.4999835775,7.798635,0.4260469075,7.6087523,0.3563112575,7.4096274C0.1387017175,6.7576404,0.0185546875,6.0535626,0.0185546875,5.3276386L0.0185546875,0L2.7029590875,0L2.7029590875,5.3276386C2.7029590875,5.4528275,2.7080001875,5.5729742,2.7214429875,5.6931214C2.7348861875,5.8687205,2.7626123875,6.0359187,2.8046218875,6.2022758C3.0499567875,7.252512,3.7305101875,8.1464729,4.6421155875,8.6690702C5.2025212875,8.9883423,5.8503074875,9.1731844,6.5401033875,9.1782255L6.5585870875,9.1782255C8.1415032875,9.1874676,9.4648017875,10.298197,9.7983560875,11.783651Z" fill="#333944" fill-opacity="1" style="mix-blend-mode:passthrough"/></g><g><path d="M2.6844041,11.205518934375L2.6844041,17.849734734374998L0,17.849734734374998L0,7.732177734375C0.085699283,8.056490744375001,0.22769125,8.421132504375,0.30078769,8.563124654375C0.85111153,9.634365634375,1.6803782,10.544290534375,2.6844041,11.206360134375L2.6844041,11.205518934375Z" fill="#333944" fill-opacity="1" style="mix-blend-mode:passthrough"/></g><g><path d="M13.079986590625,12.524651540625001L13.079986590625,17.849769140625L10.395582190625,17.849769140625L10.395582190625,12.524651540625001C10.395582190625,12.399462240624999,10.390541090625,12.275115040625,10.377097590624999,12.154127640625C10.362814890625,11.982728940625,10.335088690625,11.811329840625,10.293918590625001,11.650013940625C10.048583490625,10.594736540625,9.373072590625,9.705816040624999,8.461466790625,9.178177640625C7.896859690625,8.858905540624999,7.249073990625,8.674064140625,6.559278990625,8.669023040625L6.540794390625,8.669023040625C4.9620791906249995,8.659780940625,3.6337404806249998,7.5490509406249995,3.301025390625,6.067797683625C3.564844700625,6.012344894625,3.837906120625,5.984619140625,4.1202097506249995,5.984619140625L6.540794390625,5.984619140625C7.767470390625,5.984619140625,8.919369190625,6.327416450625,9.905752190625,6.919749380625C10.081350790624999,7.021412140625,10.252748990625001,7.137358040625,10.414905990625,7.257505140625C11.322310490625,7.928816240625,12.049074190625,8.821937540625001,12.511177090625,9.862931740625001C12.599397690625,10.047772840625,12.673333190625,10.242697240624999,12.738027590625,10.436780940624999C12.959837890625,11.093809140625,13.080825790625,11.797887840625,13.080825790625,12.523811840625001L13.079986590625,12.524651540625001Z" fill="#333944" fill-opacity="1" style="mix-blend-mode:passthrough"/></g><g><path d="M10.395751953125,6.6442151L10.395751953125,0L13.080156353125,0L13.080156353125,10.117557C12.994456553125,9.7932434,12.852464453125,9.4286022,12.779368353125001,9.2866096C12.229044353125,8.2153683,11.399778153125,7.3054438,10.395751953125,6.6433744L10.395751953125,6.6442151Z" fill="#333944" fill-opacity="1" style="mix-blend-mode:passthrough"/></g></g><g><path d="M98.067626953125,2.302963344921875C98.067626953125,1.848421244921875,98.233141733125,1.455212654921875,98.565022583125,1.123337984921875C98.896052183125,0.792303534921875,99.293470253125,0.625946044921875,99.755574253125,0.625946044921875C100.217678353125,0.625946044921875,100.626849853125,0.791463314921875,100.957889753125,1.123337984921875C101.289760353125,1.447650964921875,101.455285353125,1.844220244921875,101.455285353125,2.314726044921875C101.455285353125,2.785231844921875,101.289770653125,3.186002044921875,100.957889753125,3.517036644921875C100.634418953125,3.848911544921875,100.237011153125,4.014428344921875,99.767338053125,4.014428344921875C99.297664953125,4.014428344921875,98.896062433125,3.848911044921875,98.565022583125,3.517036644921875C98.233152003125,3.186002244921875,98.067626953125,2.781030844921875,98.067626953125,2.302963344921875ZM101.149445053125,6.522393244921875L101.149445053125,17.783447044921875L98.372615993125,17.783447044921875L98.372615993125,6.522393244921875L101.149445053125,6.522393244921875Z" fill="#6D5BFF" fill-opacity="1" style="mix-blend-mode:passthrough"/></g><g><path d="M77.79638671875,16.213973487109374C77.79638671875,15.759430887109374,77.96190149875,15.366222977109375,78.29377722875,15.034348577109375C78.62481188875,14.703313857109375,79.02221961875,14.536956787109375,79.48432371875,14.536956787109375C79.94642761875,14.536956787109375,80.35559941875,14.702474147109376,80.68663401875,15.034348577109375C81.01850981875,15.358661647109376,81.18402461875,15.755230887109375,81.18402461875,16.225737287109375C81.18402461875,16.696243787109374,81.01850981875,17.097012987109373,80.68663401875,17.428047687109377C80.36316321875,17.759921987109376,79.96575041875,17.925439387109375,79.49608751875,17.925439387109375C79.02642461875,17.925439387109375,78.62481188875,17.759921987109376,78.29377722875,17.428047687109377C77.96190149875,17.097012987109373,77.79638671875,16.692042587109377,77.79638671875,16.213973487109374Z" fill="url(#master_svg4_15_20032)" fill-opacity="1" style="mix-blend-mode:passthrough"/></g><g><path d="M86.010986328125,10.700651602148437C86.274801788125,10.756104502148437,86.547863248125,10.783830602148438,86.830165568125,10.783830602148438L89.250755328125,10.783830602148438C90.477429428125,10.783830602148438,91.630166028125,10.441033402148438,92.615716428125,9.848700502148438C92.791313128125,9.741996802148439,92.962715128125,9.631092102148438,93.124876028125,9.510944802148437C94.032284728125,8.839633902148439,94.759039928125,7.942311802148438,95.226189628125,6.905518302148438C95.309368128125,6.715635302148438,95.383304628125,6.525753002148438,95.453037228125,6.326628002148437C95.670642828125,5.673801402148437,95.790794328125,4.970562902148437,95.790794328125,4.243799212148438L95.790794328125,3.4573822021484375L93.106394328125,3.4573822021484375L93.106394328125,4.243799212148438C93.106394328125,4.368987562148438,93.101348428125,4.489134302148438,93.087912528125,4.609281302148437C93.074466728125,4.784880902148437,93.046744328125,4.952078702148437,93.004735028125,5.118436102148437C92.759396028125,6.168672802148437,92.078845028125,7.062633802148437,91.167241528125,7.585231802148438C90.606832028125,7.9045038021484375,89.959049428125,8.089345002148438,89.269257528125,8.094386102148437L89.250775828125,8.094386102148437C87.667862428125,8.103628202148437,86.344564588125,9.214358302148437,86.011006840554,10.699812402148439L86.010986328125,10.700651602148437Z" fill="url(#master_svg5_15_20033)" fill-opacity="1" style="mix-blend-mode:passthrough"/></g></g></svg>